<svg width="371" height="50" viewBox="0 0 371 50" fill="none" xmlns="http://www.w3.org/2000/svg">
<path d="M184.387 17.7969C184.241 16.4323 183.626 15.3698 182.543 14.6094C181.47 13.849 180.074 13.4687 178.355 13.4687C177.147 13.4687 176.111 13.651 175.246 14.0156C174.382 14.3802 173.72 14.875 173.262 15.5C172.803 16.125 172.569 16.8385 172.559 17.6406C172.559 18.3073 172.71 18.8854 173.012 19.375C173.324 19.8646 173.746 20.2812 174.277 20.625C174.809 20.9583 175.397 21.2396 176.043 21.4687C176.689 21.6979 177.34 21.8906 177.996 22.0469L180.996 22.7969C182.204 23.0781 183.366 23.4583 184.48 23.9375C185.605 24.4167 186.611 25.0208 187.496 25.75C188.392 26.4792 189.1 27.3594 189.621 28.3906C190.142 29.4219 190.402 30.6302 190.402 32.0156C190.402 33.8906 189.923 35.5417 188.965 36.9687C188.007 38.3854 186.621 39.4948 184.809 40.2969C183.007 41.0885 180.824 41.4844 178.262 41.4844C175.772 41.4844 173.611 41.099 171.777 40.3281C169.954 39.5573 168.527 38.4323 167.496 36.9531C166.475 35.474 165.923 33.6719 165.84 31.5469H171.543C171.626 32.6615 171.97 33.5885 172.574 34.3281C173.178 35.0677 173.965 35.6198 174.934 35.9844C175.913 36.349 177.007 36.5312 178.215 36.5312C179.475 36.5312 180.579 36.3437 181.527 35.9687C182.486 35.5833 183.236 35.0521 183.777 34.375C184.319 33.6875 184.595 32.8854 184.605 31.9687C184.595 31.1354 184.35 30.4479 183.871 29.9062C183.392 29.3542 182.72 28.8958 181.855 28.5312C181.001 28.1562 180.001 27.8229 178.855 27.5312L175.215 26.5937C172.579 25.9167 170.496 24.8906 168.965 23.5156C167.444 22.1302 166.684 20.2917 166.684 18C166.684 16.1146 167.194 14.4635 168.215 13.0469C169.246 11.6302 170.647 10.5312 172.418 9.75C174.189 8.95833 176.194 8.5625 178.434 8.5625C180.704 8.5625 182.694 8.95833 184.402 9.75C186.121 10.5312 187.47 11.6198 188.449 13.0156C189.428 14.401 189.934 15.9948 189.965 17.7969H184.387ZM199.217 26.9375V41H193.56V9H199.092V21.0781H199.373C199.935 19.724 200.805 18.6562 201.982 17.875C203.17 17.0833 204.68 16.6875 206.513 16.6875C208.18 16.6875 209.633 17.0365 210.873 17.7344C212.112 18.4323 213.071 19.4531 213.748 20.7969C214.435 22.1406 214.779 23.7812 214.779 25.7187V41H209.123V26.5937C209.123 24.9792 208.706 23.724 207.873 22.8281C207.05 21.9219 205.894 21.4687 204.404 21.4687C203.404 21.4687 202.508 21.6875 201.717 22.125C200.935 22.5521 200.321 23.1719 199.873 23.9844C199.435 24.7969 199.217 25.7812 199.217 26.9375ZM229.253 41.4688C226.91 41.4688 224.878 40.9531 223.16 39.9219C221.441 38.8906 220.108 37.4479 219.16 35.5937C218.222 33.7396 217.753 31.5729 217.753 29.0937C217.753 26.6146 218.222 24.4427 219.16 22.5781C220.108 20.7135 221.441 19.2656 223.16 18.2344C224.878 17.2031 226.91 16.6875 229.253 16.6875C231.597 16.6875 233.628 17.2031 235.347 18.2344C237.066 19.2656 238.394 20.7135 239.332 22.5781C240.279 24.4427 240.753 26.6146 240.753 29.0937C240.753 31.5729 240.279 33.7396 239.332 35.5937C238.394 37.4479 237.066 38.8906 235.347 39.9219C233.628 40.9531 231.597 41.4688 229.253 41.4688ZM229.285 36.9375C230.556 36.9375 231.618 36.5885 232.472 35.8906C233.326 35.1823 233.962 34.2344 234.378 33.0469C234.806 31.8594 235.019 30.5365 235.019 29.0781C235.019 27.6094 234.806 26.2812 234.378 25.0937C233.962 23.8958 233.326 22.9427 232.472 22.2344C231.618 21.526 230.556 21.1719 229.285 21.1719C227.983 21.1719 226.899 21.526 226.035 22.2344C225.181 22.9427 224.54 23.8958 224.113 25.0937C223.696 26.2812 223.488 27.6094 223.488 29.0781C223.488 30.5365 223.696 31.8594 224.113 33.0469C224.54 34.2344 225.181 35.1823 226.035 35.8906C226.899 36.5885 227.983 36.9375 229.285 36.9375ZM248.06 41L241.279 17H247.044L251.263 33.875H251.482L255.794 17H261.497L265.81 33.7813H266.044L270.2 17H275.982L269.185 41H263.294L258.794 24.7812H258.466L253.966 41H248.06ZM287.952 41.4688C285.556 41.4688 283.499 40.9427 281.78 39.8906C280.072 38.8385 278.754 37.3854 277.827 35.5312C276.911 33.6667 276.452 31.5208 276.452 29.0937C276.452 26.6562 276.921 24.5052 277.858 22.6406C278.796 20.7656 280.119 19.3073 281.827 18.2656C283.546 17.2135 285.577 16.6875 287.921 16.6875C289.869 16.6875 291.593 17.0469 293.093 17.7656C294.603 18.474 295.806 19.4792 296.702 20.7812C297.598 22.0729 298.108 23.5833 298.233 25.3125H292.827C292.608 24.1562 292.088 23.1927 291.265 22.4219C290.452 21.6406 289.364 21.25 287.999 21.25C286.843 21.25 285.827 21.5625 284.952 22.1875C284.077 22.8021 283.395 23.6875 282.905 24.8438C282.426 26 282.187 27.3854 282.187 29C282.187 30.6354 282.426 32.0417 282.905 33.2187C283.384 34.3854 284.056 35.2865 284.921 35.9219C285.796 36.5469 286.822 36.8594 287.999 36.8594C288.832 36.8594 289.577 36.7031 290.233 36.3906C290.9 36.0677 291.457 35.6042 291.905 35C292.353 34.3958 292.661 33.6615 292.827 32.7969H298.233C298.098 34.4948 297.598 36 296.733 37.3125C295.869 38.6146 294.692 39.6354 293.202 40.375C291.713 41.1042 289.963 41.4688 287.952 41.4688ZM308.024 41.4844C306.503 41.4844 305.134 41.2135 303.915 40.6719C302.707 40.1198 301.748 39.3073 301.04 38.2344C300.342 37.1615 299.993 35.8385 299.993 34.2656C299.993 32.9115 300.243 31.7917 300.743 30.9062C301.243 30.0208 301.925 29.3125 302.79 28.7812C303.654 28.25 304.628 27.849 305.712 27.5781C306.805 27.2969 307.936 27.0937 309.102 26.9687C310.509 26.8229 311.649 26.6927 312.524 26.5781C313.399 26.4531 314.035 26.2656 314.43 26.0156C314.837 25.7552 315.04 25.3542 315.04 24.8125V24.7188C315.04 23.5417 314.691 22.6302 313.993 21.9844C313.295 21.3385 312.29 21.0156 310.977 21.0156C309.592 21.0156 308.493 21.3177 307.68 21.9219C306.878 22.526 306.337 23.2396 306.055 24.0625L300.774 23.3125C301.191 21.8542 301.878 20.6354 302.837 19.6562C303.795 18.6667 304.967 17.9271 306.352 17.4375C307.738 16.9375 309.269 16.6875 310.946 16.6875C312.102 16.6875 313.253 16.8229 314.399 17.0937C315.545 17.3646 316.592 17.8125 317.54 18.4375C318.488 19.0521 319.248 19.8906 319.821 20.9531C320.404 22.0156 320.696 23.3437 320.696 24.9375V41L315.259 41V37.7031H315.071C314.727 38.3698 314.243 38.9948 313.618 39.5781C313.003 40.151 312.227 40.6146 311.29 40.9687C310.363 41.3125 309.274 41.4844 308.024 41.4844ZM309.493 37.3281C310.628 37.3281 311.613 37.1042 312.446 36.6562C313.279 36.1979 313.92 35.5937 314.368 34.8437C314.826 34.0937 315.055 33.276 315.055 32.3906V29.5625C314.878 29.7083 314.576 29.8437 314.149 29.9687C313.733 30.0937 313.264 30.2031 312.743 30.2969C312.222 30.3906 311.707 30.474 311.196 30.5469C310.686 30.6198 310.243 30.6823 309.868 30.7344C309.024 30.849 308.269 31.0365 307.602 31.2969C306.936 31.5573 306.41 31.9219 306.024 32.3906C305.639 32.849 305.446 33.4427 305.446 34.1719C305.446 35.2135 305.826 36 306.587 36.5313C307.347 37.0625 308.316 37.3281 309.493 37.3281ZM343.592 23.3438L338.436 23.9062C338.29 23.3854 338.035 22.8958 337.67 22.4375C337.316 21.9792 336.837 21.6094 336.233 21.3281C335.629 21.0469 334.889 20.9062 334.014 20.9062C332.837 20.9062 331.848 21.1615 331.045 21.6719C330.254 22.1823 329.863 22.8437 329.874 23.6562C329.863 24.3542 330.118 24.9219 330.639 25.3594C331.17 25.7969 332.045 26.1562 333.264 26.4375L337.358 27.3125C339.629 27.8021 341.316 28.5781 342.42 29.6406C343.535 30.7031 344.098 32.0937 344.108 33.8125C344.098 35.3229 343.655 36.6562 342.78 37.8125C341.915 38.9583 340.712 39.8542 339.17 40.5C337.629 41.1458 335.858 41.4688 333.858 41.4688C330.92 41.4688 328.556 40.8542 326.764 39.625C324.973 38.3854 323.905 36.6615 323.561 34.4531L329.077 33.9219C329.327 35.0052 329.858 35.8229 330.67 36.375C331.483 36.9271 332.54 37.2031 333.842 37.2031C335.186 37.2031 336.264 36.9271 337.077 36.375C337.9 35.8229 338.311 35.1406 338.311 34.3281C338.311 33.6406 338.045 33.0729 337.514 32.625C336.993 32.1771 336.181 31.8333 335.077 31.5937L330.983 30.7344C328.681 30.2552 326.978 29.4479 325.874 28.3125C324.769 27.1667 324.223 25.7187 324.233 23.9687C324.223 22.4896 324.624 21.2083 325.436 20.125C326.259 19.0312 327.4 18.1875 328.858 17.5937C330.327 16.9896 332.019 16.6875 333.936 16.6875C336.749 16.6875 338.962 17.2865 340.577 18.4844C342.202 19.6823 343.207 21.3021 343.592 23.3438ZM357.637 41.4688C355.231 41.4688 353.153 40.9688 351.403 39.9688C349.663 38.9583 348.325 37.5312 347.387 35.6875C346.45 33.8333 345.981 31.651 345.981 29.1406C345.981 26.6719 346.45 24.5052 347.387 22.6406C348.335 20.7656 349.658 19.3073 351.356 18.2656C353.054 17.2135 355.048 16.6875 357.34 16.6875C358.819 16.6875 360.215 16.9271 361.528 17.4062C362.851 17.875 364.017 18.6042 365.028 19.5937C366.048 20.5833 366.851 21.8437 367.434 23.375C368.017 24.8958 368.309 26.7083 368.309 28.8125V30.5469L348.637 30.5469V26.7344L362.887 26.7344C362.877 25.651 362.642 24.6875 362.184 23.8437C361.726 22.9896 361.085 22.3177 360.262 21.8281C359.45 21.3385 358.502 21.0937 357.418 21.0937C356.262 21.0937 355.246 21.375 354.371 21.9375C353.496 22.4896 352.814 23.2187 352.325 24.125C351.845 25.0208 351.601 26.0052 351.59 27.0781V30.4062C351.59 31.8021 351.845 33 352.356 34C352.866 34.9896 353.58 35.75 354.496 36.2812C355.413 36.8021 356.486 37.0625 357.715 37.0625C358.538 37.0625 359.283 36.9479 359.95 36.7187C360.616 36.4792 361.194 36.1302 361.684 35.6719C362.173 35.2135 362.543 34.6458 362.793 33.9687L368.075 34.5625C367.741 35.9583 367.106 37.1771 366.168 38.2188C365.241 39.25 364.054 40.0521 362.606 40.625C361.158 41.1875 359.502 41.4688 357.637 41.4688Z" fill="#EAEAEA"/>
<path d="M159.43 41.1353C158.489 41.1353 157.683 40.8046 157.012 40.1434C156.34 39.4821 156.009 38.6761 156.02 37.7255C156.009 36.7955 156.34 35.9999 157.012 35.3386C157.683 34.6773 158.489 34.3467 159.43 34.3467C160.339 34.3467 161.129 34.6773 161.801 35.3386C162.483 35.9999 162.829 36.7955 162.839 37.7255C162.829 38.3558 162.664 38.9293 162.343 39.4459C162.033 39.9625 161.62 40.3758 161.103 40.6858C160.597 40.9855 160.039 41.1353 159.43 41.1353Z" fill="#EAEAEA"/>
<path d="M141.982 41.2594C139.657 41.2594 137.642 40.7479 135.937 39.7249C134.232 38.702 132.91 37.2709 131.97 35.4317C131.04 33.5925 130.575 31.4432 130.575 28.984C130.575 26.5248 131.04 24.3705 131.97 22.5209C132.91 20.6713 134.232 19.2351 135.937 18.2121C137.642 17.1892 139.657 16.6777 141.982 16.6777C144.307 16.6777 146.322 17.1892 148.027 18.2121C149.732 19.2351 151.049 20.6713 151.979 22.5209C152.919 24.3705 153.389 26.5248 153.389 28.984C153.389 31.4432 152.919 33.5925 151.979 35.4317C151.049 37.2709 149.732 38.702 148.027 39.7249C146.322 40.7479 144.307 41.2594 141.982 41.2594ZM142.013 36.7646C143.274 36.7646 144.328 36.4185 145.175 35.7262C146.022 35.0235 146.652 34.0833 147.066 32.9053C147.489 31.7274 147.701 30.4151 147.701 28.9685C147.701 27.5116 147.489 26.1942 147.066 25.0163C146.652 23.828 146.022 22.8826 145.175 22.1799C144.328 21.4773 143.274 21.126 142.013 21.126C140.721 21.126 139.647 21.4773 138.789 22.1799C137.942 22.8826 137.306 23.828 136.883 25.0163C136.47 26.1942 136.263 27.5116 136.263 28.9685C136.263 30.4151 136.47 31.7274 136.883 32.9053C137.306 34.0833 137.942 35.0235 138.789 35.7262C139.647 36.4185 140.721 36.7646 142.013 36.7646Z" fill="#EAEAEA"/>
<path d="M122.402 40.793V16.9863H128.013V40.793H122.402Z" fill="#EAEAEA"/>
<path d="M105.923 41.2125C104.053 41.2125 102.379 40.732 100.901 39.7711C99.4235 38.8101 98.2559 37.4152 97.3982 35.5863C96.5406 33.7574 96.1118 31.5359 96.1118 28.9217C96.1118 26.2765 96.5458 24.0446 97.4137 22.2261C98.292 20.3972 99.4751 19.0177 100.963 18.0878C102.451 17.1475 104.109 16.6774 105.938 16.6774C107.333 16.6774 108.48 16.915 109.379 17.3903C110.278 17.8553 110.991 18.4184 111.518 19.0797C112.045 19.7307 112.453 20.3455 112.742 20.9241H112.975V9.06006H118.601V40.794H113.083V37.0432H112.742C112.453 37.6219 112.035 38.2367 111.487 38.8876C110.939 39.5282 110.216 40.0759 109.317 40.5305C108.418 40.9852 107.287 41.2125 105.923 41.2125ZM107.488 36.6092C108.676 36.6092 109.689 36.2889 110.526 35.6483C111.363 34.9973 111.998 34.0932 112.432 32.936C112.866 31.7787 113.083 30.4303 113.083 28.8907C113.083 27.3511 112.866 26.013 112.432 24.8764C112.009 23.7398 111.378 22.8564 110.542 22.2261C109.715 21.5958 108.697 21.2806 107.488 21.2806C106.238 21.2806 105.194 21.6061 104.357 22.2571C103.52 22.908 102.89 23.807 102.466 24.9539C102.043 26.1008 101.831 27.4131 101.831 28.8907C101.831 30.3786 102.043 31.7064 102.466 32.874C102.9 34.0312 103.536 34.9457 104.373 35.6173C105.22 36.2786 106.259 36.6092 107.488 36.6092Z" fill="#EAEAEA"/>
<path d="M87.8987 30.7806V16.9863H93.5094V40.793H88.0692V36.5617H87.8212C87.2839 37.8947 86.4005 38.9848 85.1709 39.832C83.9516 40.6793 82.4482 41.103 80.6607 41.103C79.1004 41.103 77.721 40.7568 76.5224 40.0645C75.3341 39.3619 74.4042 38.3441 73.7325 37.0112C73.0609 35.6679 72.7251 34.0457 72.7251 32.1445V16.9863H78.3358V31.2765C78.3358 32.7851 78.7491 33.9837 79.5757 34.8723C80.4023 35.7609 81.4873 36.2052 82.8305 36.2052C83.6571 36.2052 84.4579 36.0038 85.2329 35.6008C86.0079 35.1978 86.6433 34.5985 87.1393 33.8029C87.6456 32.9969 87.8987 31.9895 87.8987 30.7806Z" fill="#EAEAEA"/>
<path d="M70.2138 16.9869V21.3266L56.4971 21.3045V16.9647L70.2138 16.9869ZM59.9069 11.2832L65.5176 11.2832V33.6329C65.5176 34.3872 65.6313 34.9659 65.8586 35.3689C66.0962 35.7615 66.4062 36.0301 66.7885 36.1748C67.1709 36.3195 67.5945 36.3918 68.0595 36.3918C68.4108 36.3918 68.7311 36.366 69.0204 36.3143C69.3201 36.2626 69.5474 36.2161 69.7024 36.1748L70.6478 40.5611C70.3482 40.6644 69.9194 40.778 69.3614 40.902C68.8138 41.026 68.1421 41.0984 67.3465 41.119C65.9413 41.1604 64.6755 40.9485 63.5492 40.4836C62.423 40.0083 61.5292 39.2746 60.8679 38.2827C60.2169 37.2907 59.8966 36.0508 59.9069 34.5629V11.2832Z" fill="#EAEAEA"/>
<path fill-rule="evenodd" clip-rule="evenodd" d="M50.8634 16.967C50.595 15.9964 50.0361 15.213 49.1867 14.6168C48.1225 13.8625 46.7379 13.4854 45.033 13.4854C43.8344 13.4854 42.8063 13.6662 41.9486 14.0278C41.091 14.3895 40.4349 14.8803 39.9803 15.5003C39.5256 16.1202 39.2931 16.828 39.2828 17.6236C39.2828 18.2849 39.4326 18.8584 39.7323 19.344C40.0422 19.8297 40.4607 20.243 40.9877 20.584C41.5147 20.9146 42.0985 21.1936 42.7391 21.4209C43.3797 21.6483 44.0255 21.8394 44.6765 21.9944L47.6523 22.7384C48.8509 23.0173 50.003 23.3945 51.1086 23.8698C52.2246 24.3451 53.2217 24.9444 54.1 25.6677C54.9886 26.391 55.6912 27.2641 56.2078 28.287C56.7245 29.31 56.9828 30.5086 56.9828 31.8828C56.9828 33.7427 56.5075 35.3805 55.5569 36.7961C54.6063 38.2013 53.232 39.3018 51.4341 40.0974C49.6465 40.8827 47.4818 41.2753 44.94 41.2753C42.4704 41.2753 40.3264 40.893 38.5078 40.1284C36.6996 39.3638 35.284 38.2478 34.2611 36.7806C33.2485 35.3133 32.7008 33.5258 32.6182 31.4179H38.2753C38.358 32.5235 38.699 33.4431 39.2983 34.1767C39.8976 34.9103 40.6777 35.458 41.6387 35.8196C42.6099 36.1813 43.6949 36.3621 44.8935 36.3621C46.1437 36.3621 47.239 36.1761 48.1793 35.8041C49.1299 35.4218 49.8739 34.8948 50.4112 34.2232C50.9485 33.5412 51.2223 32.7456 51.2326 31.8363C51.2223 31.0097 50.9795 30.3278 50.5042 29.7905C50.0289 29.2428 49.3624 28.7882 48.5048 28.4265C47.6575 28.0546 46.6655 27.7239 45.5289 27.4346L41.9176 26.5046C39.3035 25.833 37.2369 24.8152 35.718 23.4513C34.2094 22.0771 33.4551 20.2533 33.4551 17.9801C33.4551 16.1099 33.9614 14.4722 34.974 13.0669C35.997 11.6616 37.3867 10.5715 39.1433 9.79659C40.8999 9.0113 42.8889 8.61865 45.1105 8.61865C47.363 8.61865 49.3366 9.0113 51.0311 9.79659C52.736 10.5715 54.0741 11.6513 55.0454 13.0359C55.867 14.1984 56.3522 15.5088 56.501 16.967H50.8634Z" fill="#EAEAEA"/>
<path d="M125.209 14.7187C124.368 14.7187 123.647 14.4216 123.047 13.8273C122.446 13.2331 122.15 12.5089 122.159 11.6547C122.15 10.8191 122.446 10.1042 123.047 9.50998C123.647 8.91576 124.368 8.61865 125.209 8.61865C126.023 8.61865 126.73 8.91576 127.33 9.50998C127.94 10.1042 128.25 10.8191 128.259 11.6547C128.25 12.2211 128.102 12.7364 127.816 13.2006C127.538 13.6649 127.169 14.0363 126.707 14.3148C126.254 14.584 125.755 14.7187 125.209 14.7187Z" fill="#EAEAEA"/>
<path fill-rule="evenodd" clip-rule="evenodd" d="M32.6153 12.6055L4.0977 41.1231L0 37.0254L28.5176 8.5078L32.6153 12.6055Z" fill="#EAEAEA"/>
</svg>
